   General
      Complete name: BZN - Dance Dance.mpg
      Format : MPEG-PS
      File size : 137 MiB
      Duration : 2mn 46s
      Overall bit rate : 6 927 Kbps
   Video #224
      ID : 224 (0xE0)
      Format : MPEG Video
      Format version : Version 2
      Format profile : Main@Main
      Format settings, Matrix : Default
      Duration : 2mn 46s
      Bit rate mode : Variable
      Bit rate : 6 428 Kbps
      Nominal bit rate : 9 500 Kbps
      Width : 720 pixels
      Height : 576 pixels
      Display aspect ratio : 4:3
      Frame rate : 25.000 fps
      Standard : PAL
      Colorimetry : 4:2:0
      Scan type : Interlaced
      Scan order : Bottom Field First
      Bits/(Pixel*Frame) : 0.620
      Stream size : 127 MiB (93%)
   Audio #192
      ID : 192 (0xC0)
      Format : MPEG Audio
      Format version : Version 1
      Format profile : Layer 2
      Duration : 2mn 46s
      Bit rate mode : Constant
      Bit rate : 224 Kbps
      Channel(s) : 2 channels
      Sampling rate : 48.0 KHz
      Resolution : 16 bits
      Stream size : 4.43 MiB (3%)